HIERARCHY
ROOT Pelvis
{
	OFFSET 0.000000 0.000000 0.000000
	CHANNELS 6 Xposition Yposition Zposition Xrotation Yrotation Zrotation
	JOINT LeftUpLeg_virtual
	{
		OFFSET 0.000000 0.000000 0.000000
		CHANNELS 3 Xrotation Yrotation Zrotation
		JOINT LeftUpLeg
		{
			OFFSET 18.735201 -5.666702 -4.541200
			CHANNELS 3 Xrotation Yrotation Zrotation
			JOINT LeftLeg
			{
				OFFSET -0.021200 -31.938179 0.493100
				CHANNELS 3 Xrotation Yrotation Zrotation
				JOINT LeftFoot
				{
					OFFSET 0.021200 -31.938179 -4.336299
					CHANNELS 3 Xrotation Yrotation Zrotation
					JOINT LeftToeBase
					{
						OFFSET 0.943001 -26.722000 15.023500
						CHANNELS 3 Xrotation Yrotation Zrotation
						End Site
						{
							OFFSET 0 0 0
						}
					}
				}
			}
		}
	}
	JOINT RightUpLeg_virtual
	{
		OFFSET 0.000000 0.000000 0.000000
		CHANNELS 3 Xrotation Yrotation Zrotation
		JOINT RightUpLeg
		{
			OFFSET -18.735201 -5.666702 -4.541200
			CHANNELS 3 Xrotation Yrotation Zrotation
			JOINT RightLeg
			{
				OFFSET 0.018946 -31.938133 0.493100
				CHANNELS 3 Xrotation Yrotation Zrotation
				JOINT RightFoot
				{
					OFFSET -0.018946 -31.938126 -4.336299
					CHANNELS 3 Xrotation Yrotation Zrotation
					JOINT RightToeBase
					{
						OFFSET -0.943001 -26.722004 15.023500
						CHANNELS 3 Xrotation Yrotation Zrotation
						End Site
						{
							OFFSET 0 0 0
						}
					}
				}
			}
		}
	}
	JOINT Hips_virtual
	{
		OFFSET 0.000000 0.000000 0.000000
		CHANNELS 3 Xrotation Yrotation Zrotation
		JOINT Hips
		{
			OFFSET -0.000000 -0.000000 -0.000000
			CHANNELS 3 Xrotation Yrotation Zrotation
			JOINT Spine
			{
				OFFSET 0.000000 10.199997 -0.299500
				CHANNELS 3 Xrotation Yrotation Zrotation
				JOINT Spine1
				{
					OFFSET 0.000000 11.900002 -1.516600
					CHANNELS 3 Xrotation Yrotation Zrotation
					JOINT Spine2
					{
						OFFSET 0.000000 13.600006 -2.842500
						CHANNELS 3 Xrotation Yrotation Zrotation
						JOINT Neck_virtual
						{
							OFFSET 0.000000 0.000000 0.000000
							CHANNELS 3 Xrotation Yrotation Zrotation
							JOINT Neck
							{
								OFFSET 0.000000 9.624100 -2.890100
								CHANNELS 3 Xrotation Yrotation Zrotation
								JOINT Head
								{
									OFFSET 0.000000 14.068802 -1.351900
									CHANNELS 3 Xrotation Yrotation Zrotation
									End Site
									{
										OFFSET 0 0 0
									}
								}
							}
						}
						JOINT LeftShoulder_virtual
						{
							OFFSET 0.000000 0.000000 0.000000
							CHANNELS 3 Xrotation Yrotation Zrotation
							JOINT LeftShoulder
							{
								OFFSET 15.263000 10.923401 -0.547700
								CHANNELS 3 Xrotation Yrotation Zrotation
								JOINT LeftArm
								{
									OFFSET 25.438599 -2.830597 -13.032500
									CHANNELS 3 Xrotation Yrotation Zrotation
									JOINT LeftForeArm
									{
										OFFSET 29.960503 0.000000 0.000000
										CHANNELS 3 Xrotation Yrotation Zrotation
										JOINT LeftHand
										{
											OFFSET 27.849251 0.000000 0.000000
											CHANNELS 3 Xrotation Yrotation Zrotation
											End Site
											{
												OFFSET 0 0 0
											}
										}
									}
								}
							}
						}
						JOINT RightShoulder_virtual
						{
							OFFSET 0.000000 0.000000 0.000000
							CHANNELS 3 Xrotation Yrotation Zrotation
							JOINT RightShoulder
							{
								OFFSET -15.263000 10.923401 -0.547700
								CHANNELS 3 Xrotation Yrotation Zrotation
								JOINT RightArm
								{
									OFFSET -25.438599 -2.830597 -13.032500
									CHANNELS 3 Xrotation Yrotation Zrotation
									JOINT RightForeArm
									{
										OFFSET -29.960503 0.000000 0.000000
										CHANNELS 3 Xrotation Yrotation Zrotation
										JOINT RightHand
										{
											OFFSET -27.849251 0.000000 0.000000
											CHANNELS 3 Xrotation Yrotation Zrotation
											End Site
											{
												OFFSET 0 0 0
											}
										}
									}
								}
							}
						}
					}
				}
			}
		}
	}
}
MOTION
Frames: 10
Frame Time: 0.03333333
4.287617 59.248276 120.447243 0.000000 0.000000 0.000000 26.730534 -56.204783 32.936702 -58.456406 -48.651506 41.480630 83.713462 -1.680196 -42.340971 -7.985067 -1.896123 -28.305086 0.000000 0.000000 0.000000 26.730534 -56.204783 32.936702 -92.338079 38.250835 -21.006278 109.250051 15.964983 1.973733 -25.285333 -7.656840 22.499080 0.000000 0.000000 0.000000 26.730534 -56.204783 32.936702 -0.000001 -0.000001 0.000001 36.075051 -1.475307 -12.492413 -1.957388 5.375157 -0.991200 0.000000 0.000000 0.000000 2.116132 5.078862 -0.821982 -2.574582 4.338561 -1.294693 0.000000 0.000000 0.000000 2.116132 5.078862 -0.821982 5.941490 -18.519081 -1.957349 -27.184722 20.945573 -31.616362 -81.078116 -81.172605 -70.319707 0.000000 0.000000 0.000000 2.116132 5.078862 -0.821982 0.012703 27.801549 18.707810 -54.993914 -1.387953 14.818766 -31.712883 58.823037 27.684025 0.000000 0.000000 0.000000 
4.463406 59.335480 121.130615 0.000000 0.000000 0.000000 28.430763 -56.659445 34.193368 -58.128899 -48.618157 42.608516 84.766794 -2.432418 -43.219299 -9.130885 -1.903853 -27.567593 0.000000 0.000000 0.000000 28.430763 -56.659445 34.193368 -92.531885 38.287319 -20.986342 107.903363 15.761075 1.931549 -24.588300 -7.191556 23.321841 0.000000 0.000000 0.000000 28.430763 -56.659445 34.193368 -0.000001 0.000002 0.000001 35.756317 -1.830558 -13.973956 -2.211905 5.602687 -0.808047 0.000000 0.000000 0.000000 1.905225 5.369619 -0.299753 -2.519093 4.412011 -1.283921 0.000000 0.000000 0.000000 1.905225 5.369619 -0.299753 6.664362 -18.263926 -2.232492 -27.495671 17.707793 -32.135118 -65.949247 -80.866619 -55.485189 0.000000 0.000000 0.000000 1.905225 5.369619 -0.299753 0.392898 28.446676 18.972630 -54.816896 -0.739639 15.725261 -32.159543 59.955694 28.372001 0.000000 0.000000 0.000000 
4.521231 59.596191 121.812668 0.000000 0.000000 0.000000 29.484001 -56.904615 35.169259 -57.780661 -48.537551 42.768865 85.523749 -2.666712 -44.009822 -10.215970 -1.814747 -26.987382 0.000000 0.000000 0.000000 29.484001 -56.904615 35.169259 -92.014253 38.242151 -21.512541 106.736452 15.495995 1.638245 -24.312332 -6.738439 24.035786 0.000000 0.000000 0.000000 29.484001 -56.904615 35.169259 -0.000001 0.000001 -0.000001 35.086491 -2.150720 -15.474854 -2.135788 5.671948 -0.623130 0.000000 0.000000 0.000000 1.911755 5.457658 0.250405 -2.516202 4.458396 -1.239996 0.000000 0.000000 0.000000 1.911755 5.457658 0.250405 7.124637 -18.651628 -2.187860 -27.932340 15.768875 -32.151948 -52.503791 -79.963695 -42.362766 0.000000 0.000000 0.000000 1.911755 5.457658 0.250405 0.481423 28.460036 19.320850 -54.296240 -0.269317 17.138941 -33.555910 61.774738 30.127295 0.000000 0.000000 0.000000 
4.640938 59.959007 122.489029 0.000000 0.000000 0.000000 29.933970 -56.743757 35.358680 -58.348257 -48.643716 42.034623 86.061558 -2.662319 -44.369308 -10.859588 -1.743954 -26.338410 0.000000 0.000000 0.000000 29.933970 -56.743757 35.358680 -90.764540 37.661400 -22.804646 105.529688 14.448299 1.210644 -24.230547 -5.644722 24.977636 0.000000 0.000000 0.000000 29.933970 -56.743757 35.358680 0.000000 0.000000 0.000000 34.196790 -2.330176 -16.033391 -1.873215 5.586110 -0.555353 0.000000 0.000000 0.000000 2.077609 5.368877 0.484100 -2.556040 4.476718 -1.187769 0.000000 0.000000 0.000000 2.077609 5.368877 0.484100 6.965545 -19.294374 -2.102315 -28.134867 15.072539 -32.000529 -44.720913 -79.216916 -34.966020 0.000000 0.000000 0.000000 2.077609 5.368877 0.484100 0.326741 28.032097 19.689723 -54.046071 0.106957 18.102744 -34.543122 63.125619 31.386406 0.000000 0.000000 0.000000 
4.711515 60.372200 123.206970 0.000000 0.000000 0.000000 29.706952 -56.343515 34.660813 -58.587764 -49.443309 41.484370 86.576117 -2.544773 -45.147240 -11.336453 -1.918340 -25.648837 0.000000 0.000000 0.000000 29.706952 -56.343515 34.660813 -88.526376 36.858908 -24.704330 104.298204 14.760976 1.213336 -24.661458 -5.814272 25.163260 0.000000 0.000000 0.000000 29.706952 -56.343515 34.660813 0.000000 -0.000001 0.000000 33.200433 -2.298041 -15.706227 -1.446994 5.422983 -0.586298 0.000000 0.000000 0.000000 2.406712 5.157370 0.405552 -2.632406 4.473239 -1.126971 0.000000 0.000000 0.000000 2.406712 5.157370 0.405552 6.453774 -19.703318 -2.089436 -28.300085 14.446690 -31.890126 -38.149595 -78.327503 -28.795733 0.000000 0.000000 0.000000 2.406712 5.157370 0.405552 -0.249768 27.328311 20.070152 -53.669577 -0.506390 18.926656 -36.260276 64.863827 33.429835 0.000000 0.000000 0.000000 
4.651062 60.949196 123.919693 0.000000 0.000000 0.000000 29.729314 -55.988304 33.978999 -59.040756 -49.350439 40.997247 86.627972 -2.675442 -45.330367 -11.903218 -2.043269 -24.643159 0.000000 0.000000 0.000000 29.729314 -55.988304 33.978999 -86.192199 35.479035 -26.284069 102.817467 14.819504 1.167150 -25.210812 -6.009589 25.244456 0.000000 0.000000 0.000000 29.729314 -55.988304 33.978999 0.000000 0.000000 -0.000001 31.999023 -2.054290 -15.182436 -0.977215 5.239299 -0.628020 0.000000 0.000000 0.000000 2.798398 5.021162 0.200405 -2.752664 4.457978 -1.058498 0.000000 0.000000 0.000000 2.798398 5.021162 0.200405 5.671746 -19.772173 -2.223025 -28.539450 13.287414 -31.982149 -30.990686 -76.716357 -22.029030 0.000000 0.000000 0.000000 2.798398 5.021162 0.200405 -0.985394 26.476614 20.357881 -53.163727 -2.091470 19.482309 -39.765884 67.368061 37.378845 0.000000 0.000000 0.000000 
4.546673 61.675163 124.572205 0.000000 0.000000 0.000000 29.649407 -55.729467 33.336780 -60.380491 -47.822864 39.561808 86.045986 -3.005027 -44.290700 -12.413814 -1.765498 -23.362414 0.000000 0.000000 0.000000 29.649407 -55.729467 33.336780 -83.878111 33.947925 -27.353820 101.239181 14.471142 0.827563 -25.704486 -6.254937 25.481737 0.000000 0.000000 0.000000 29.649407 -55.729467 33.336780 0.000000 0.000000 0.000000 30.506227 -1.879421 -14.783664 -0.440120 5.095503 -0.749305 0.000000 0.000000 0.000000 3.273238 4.907280 0.109045 -2.916038 4.425683 -0.984702 0.000000 0.000000 0.000000 3.273238 4.907280 0.109045 4.715138 -19.580585 -2.384854 -28.436579 12.202644 -32.669512 -25.317561 -74.838082 -16.768022 0.000000 0.000000 0.000000 3.273238 4.907280 0.109045 -1.727750 25.480222 20.509600 -52.520255 -4.044641 20.085653 -44.435811 69.865541 42.490214 0.000000 0.000000 0.000000 
4.391729 62.567200 125.186264 0.000000 0.000000 0.000000 29.571468 -55.677776 32.815367 -59.543581 -47.348456 39.379947 85.167166 -2.846219 -44.782265 -12.891147 -1.460839 -22.294117 0.000000 0.000000 0.000000 29.571468 -55.677776 32.815367 -81.531278 32.438071 -28.215621 99.343032 14.122441 0.658453 -26.003309 -6.405456 25.581411 0.000000 0.000000 0.000000 29.571468 -55.677776 32.815367 -0.000001 0.000000 -0.000001 28.800381 -1.771814 -14.866873 0.139937 5.044806 -0.799695 0.000000 0.000000 0.000000 3.774941 4.897881 0.244584 -3.101363 4.393864 -0.901192 0.000000 0.000000 0.000000 3.774941 4.897881 0.244584 3.779291 -19.299874 -2.558625 -28.499600 10.733454 -33.466657 -20.073057 -72.353819 -11.946476 0.000000 0.000000 0.000000 3.774941 4.897881 0.244584 -2.283486 24.495661 20.457917 -52.061983 -5.949162 20.419472 -49.271175 71.817240 47.679809 0.000000 0.000000 0.000000 
4.191534 63.570358 125.758987 0.000000 0.000000 0.000000 29.174651 -55.815787 32.362396 -57.697839 -47.145661 39.219657 84.103008 -2.260129 -45.829938 -13.409113 -1.012207 -21.413468 0.000000 0.000000 0.000000 29.174651 -55.815787 32.362396 -79.084452 31.217550 -29.014189 97.392207 13.820389 0.495714 -26.183431 -6.506744 25.644644 0.000000 0.000000 0.000000 29.174651 -55.815787 32.362396 0.000000 0.000000 0.000000 27.020877 -1.731584 -15.378154 0.839881 5.031859 -0.851258 0.000000 0.000000 0.000000 4.283899 4.874407 0.504206 -3.286719 4.393599 -0.800980 0.000000 0.000000 0.000000 4.283899 4.874407 0.504206 2.928303 -18.951494 -2.687708 -28.849025 9.081590 -34.070216 -15.632925 -68.985389 -7.951049 0.000000 0.000000 0.000000 4.283899 4.874407 0.504206 -2.844185 23.530044 20.169038 -51.626169 -7.883209 20.663342 -54.908212 73.502145 53.644364 0.000000 0.000000 0.000000 
3.950747 64.627899 126.313591 0.000000 0.000000 0.000000 28.827151 -56.003077 31.823880 -56.626592 -45.907802 38.679539 82.794706 -1.910567 -45.807654 -13.882732 -0.583649 -20.341391 0.000000 0.000000 0.000000 28.827151 -56.003077 31.823880 -76.751901 29.633510 -29.720264 95.274138 13.579243 0.343255 -26.269039 -6.507594 25.521345 0.000000 0.000000 0.000000 28.827151 -56.003077 31.823880 0.000001 0.000000 0.000000 25.174305 -1.661833 -15.718164 1.412936 5.004450 -0.891784 0.000000 0.000000 0.000000 4.845459 4.923197 0.676620 -3.452017 4.435368 -0.682254 0.000000 0.000000 0.000000 4.845459 4.923197 0.676620 1.983174 -18.720825 -2.854409 -28.980066 7.871507 -34.787461 -12.649602 -65.888479 -5.439479 0.000000 0.000000 0.000000 4.845459 4.923197 0.676620 -3.426704 22.575558 19.612729 -51.300540 -9.863259 20.734878 -61.127762 74.900749 60.156488 0.000000 0.000000 0.000000 
